<svg xmlns="http://www.w3.org/2000/svg" viewBox="0 0 512 512" width="100%" height="100%">
  <defs>
    <linearGradient id="g5-blue" x1="0%" y1="0%" x2="100%" y2="100%"><stop offset="0%" stop-color="#2563EB"/><stop offset="100%" stop-color="#7C3AED"/></linearGradient>
    <linearGradient id="g5-cyan" x1="0%" y1="0%" x2="100%" y2="100%"><stop offset="0%" stop-color="#06B6D4"/><stop offset="100%" stop-color="#3B82F6"/></linearGradient>
  </defs>
  <!-- Left Page -->
  <path d="M256 200 C180 160 100 180 80 200 V380 C100 360 180 340 256 380 Z" fill="url(#g5-blue)" stroke="#2D2D2D" stroke-width="10"/>
  <!-- Right Page -->
  <path d="M256 200 C332 160 412 180 432 200 V380 C412 360 332 340 256 380 Z" fill="url(#g5-cyan)" stroke="#2D2D2D" stroke-width="10"/>
  <!-- Central AI Energy Beam -->
  <line x1="256" y1="120" x2="256" y2="400" stroke="#F59E0B" stroke-width="12" stroke-linecap="round"/>
  <!-- Top AI Intelligence Spark -->
  <path d="M256 70 L268 105 L303 117 L268 129 L256 164 L244 129 L209 117 L244 105 Z" fill="#F59E0B"/>
</svg>
